<?xml version="1.0" standalone="no"?>
<!DOCTYPE svg PUBLIC "-//W3C//DTD SVG 20010904//EN"
 "http://www.w3.org/TR/2001/REC-SVG-20010904/DTD/svg10.dtd">
<svg version="1.0" xmlns="http://www.w3.org/2000/svg"
 width="900.000000pt" height="900.000000pt" viewBox="0 0 900.000000 900.000000"
 preserveAspectRatio="xMidYMid meet">

<g transform="translate(0.000000,900.000000) scale(0.100000,-0.100000)"
fill="#000000" stroke="none">
<path d="M4575 7939 c-443 -30 -739 -72 -992 -140 -121 -32 -528 -168 -658
-219 -254 -100 -590 -288 -820 -459 -107 -79 -289 -244 -345 -312 -24 -30 -73
-85 -108 -123 -159 -174 -262 -388 -302 -627 -10 -56 -9 -72 4 -97 13 -26 22
-30 73 -37 79 -9 121 -30 243 -119 99 -73 459 -417 579 -556 58 -66 256 -341
346 -479 111 -171 125 -204 137 -322 10 -99 12 -107 50 -156 51 -67 94 -200
109 -334 6 -55 9 -102 7 -104 -2 -3 -49 -16 -104 -30 -157 -41 -240 -72 -369
-134 -263 -129 -479 -302 -587 -471 -81 -126 -91 -159 -86 -282 3 -97 6 -109
45 -188 45 -93 138 -198 265 -298 72 -56 225 -136 373 -195 90 -36 293 -81
416 -93 l66 -6 27 -63 c54 -124 233 -271 468 -387 100 -48 185 -76 277 -90 60
-9 75 -8 82 3 5 8 9 73 9 144 0 72 4 135 8 142 21 33 146 49 262 33 80 -11
263 -63 285 -80 6 -5 37 -18 70 -31 33 -12 80 -31 105 -42 83 -38 216 -31 272
13 13 9 34 21 47 25 30 9 122 63 136 80 6 6 57 52 115 102 139 119 372 353
455 456 36 45 97 127 135 182 116 171 193 230 479 365 392 185 602 330 804
557 188 212 263 343 366 646 85 251 104 348 105 532 1 183 -11 249 -69 390
-20 50 -37 96 -38 104 -4 31 187 115 294 129 l64 8 -60 14 c-48 10 -80 10
-160 1 -132 -15 -167 -21 -186 -32 -12 -6 -28 4 -64 42 -83 87 -202 156 -335
195 l-75 22 65 30 c92 42 154 100 179 166 18 49 52 217 45 224 -1 2 -15 -16
-30 -40 -39 -62 -171 -188 -230 -220 -30 -16 -80 -32 -120 -37 -38 -6 -101
-20 -139 -32 -63 -20 -95 -22 -315 -24 -211 -2 -257 -5 -335 -24 -148 -35
-367 -75 -481 -86 -59 -6 -62 -6 -94 27 -58 58 -128 230 -154 380 -31 176 -39
327 -32 583 15 541 31 710 97 1009 22 98 43 214 46 256 l6 76 -39 20 c-35 17
-64 19 -304 20 -146 1 -319 -2 -385 -7z m2482 -1986 c-53 -193 -73 -221 -218
-294 -113 -56 -130 -72 -183 -162 -22 -37 -60 -90 -85 -118 -40 -44 -55 -53
-115 -70 -86 -23 -112 -40 -134 -87 -30 -64 -114 -89 -156 -46 -27 27 -19 68
25 123 23 29 57 87 75 129 26 59 34 70 34 49 0 -16 4 -27 9 -25 5 2 36 37 69
79 105 133 157 163 332 189 41 6 90 19 108 28 47 23 171 131 207 180 33 46 39
50 32 25z m459 -580 c-17 -5 -147 -70 -206 -104 -54 -31 -170 -131 -254 -220
-159 -167 -253 -344 -296 -554 -38 -190 -77 -264 -200 -376 -77 -71 -182 -126
-260 -136 -51 -7 -111 12 -151 48 -18 17 -44 35 -57 40 -51 20 -189 2 -259
-35 -18 -9 -39 -16 -47 -16 -25 0 -130 -106 -161 -162 -16 -29 -43 -71 -61
-93 -38 -47 -79 -127 -89 -172 -22 -105 84 -181 187 -135 l46 20 -44 -84 c-45
-87 -104 -180 -158 -248 -39 -49 -217 -136 -329 -161 -53 -12 -100 -31 -154
-63 -87 -53 -131 -102 -140 -155 -14 -87 22 -113 140 -104 85 7 145 26 291 95
16 8 -86 -121 -149 -187 -33 -35 -76 -73 -95 -85 -30 -19 -181 -91 -275 -131
-46 -19 -131 -27 -175 -15 -34 9 -41 16 -50 49 -17 63 -74 77 -206 50 -145
-29 -241 -85 -302 -176 l-37 -56 -13 74 c-16 88 -10 232 12 305 9 27 34 76 56
106 22 31 40 61 40 67 0 6 4 11 10 11 11 0 45 113 54 177 5 35 3 44 -13 53
-30 15 -56 12 -85 -11 l-26 -20 0 56 c0 75 16 108 93 190 74 81 96 123 107
215 26 204 31 224 78 320 26 52 63 115 82 141 35 47 122 143 138 153 5 3 -7
-39 -25 -92 -57 -161 -57 -264 -1 -328 38 -43 57 -53 125 -69 48 -11 58 -11
92 6 83 40 159 164 199 324 24 95 30 151 37 345 7 175 20 224 84 321 88 133
249 266 441 365 163 83 249 155 331 278 31 47 39 54 39 35 0 -13 -11 -50 -24
-81 -42 -103 -79 -149 -170 -213 -48 -33 -86 -64 -86 -68 0 -5 -18 -29 -40
-54 -22 -25 -40 -53 -40 -62 0 -9 -6 -25 -14 -36 -24 -35 -57 -157 -63 -235
-10 -135 38 -260 125 -327 36 -27 53 -33 92 -33 54 0 116 24 125 49 4 9 10 59
15 112 12 137 51 225 147 328 89 96 160 137 259 149 l69 8 -81 -78 c-106 -102
-139 -169 -138 -277 0 -69 2 -76 29 -99 25 -21 35 -24 79 -18 115 13 248 105
464 319 137 136 196 221 241 346 16 44 40 100 54 124 42 71 138 152 235 199
95 46 274 97 337 96 22 0 32 -2 21 -5z m-4185 -3115 c89 -44 157 -111 183
-180 18 -45 18 -48 0 -85 -17 -33 -24 -38 -58 -41 -67 -6 -130 35 -261 169
-98 100 -128 125 -170 139 -44 16 -47 18 -25 23 14 4 34 8 45 11 11 2 63 4
116 3 88 -2 101 -5 170 -39z"/>
</g>
</svg>
